<mxfile host="app.diagrams.net" modified="2023-11-28T12:15:37.267Z" agent="Mozilla/5.0 (Windows NT 10.0; Win64; x64) AppleWebKit/537.36 (KHTML, like Gecko) Chrome/119.0.0.0 Safari/537.36" etag="WGWpHp2OLC2XvqwLiCN5" version="22.1.4" type="device">
  <diagram name="Page-1" id="iecRBOiPd0kBJ9Qcm1Lw">
    <mxGraphModel dx="2354" dy="1291" grid="1" gridSize="10" guides="1" tooltips="1" connect="1" arrows="1" fold="1" page="1" pageScale="1" pageWidth="850" pageHeight="1100" math="0" shadow="0">
      <root>
        <mxCell id="0" />
        <mxCell id="1" parent="0" />
        <mxCell id="17-9RkpPvaxZFu77GrTP-1" style="edgeStyle=none;rounded=0;orthogonalLoop=1;jettySize=auto;html=1;exitX=1;exitY=1;exitDx=0;exitDy=0;fontSize=18;fillColor=#d5e8d4;strokeColor=default;" edge="1" parent="1">
          <mxGeometry relative="1" as="geometry">
            <mxPoint x="200" y="316.75" as="sourcePoint" />
            <mxPoint x="200" y="316.75" as="targetPoint" />
          </mxGeometry>
        </mxCell>
        <mxCell id="17-9RkpPvaxZFu77GrTP-8" style="edgeStyle=none;curved=1;rounded=0;orthogonalLoop=1;jettySize=auto;html=1;exitX=1;exitY=0.5;exitDx=0;exitDy=0;entryX=0;entryY=0.5;entryDx=0;entryDy=0;fontSize=12;startSize=8;endSize=8;" edge="1" parent="1" source="17-9RkpPvaxZFu77GrTP-2" target="17-9RkpPvaxZFu77GrTP-3">
          <mxGeometry relative="1" as="geometry" />
        </mxCell>
        <mxCell id="17-9RkpPvaxZFu77GrTP-2" value="&lt;b style=&quot;font-size: 12px;&quot;&gt;&lt;font style=&quot;font-size: 16px;&quot;&gt;Single-Page Web&lt;br&gt;Application&lt;/font&gt;&lt;/b&gt;" style="rounded=1;whiteSpace=wrap;html=1;fontSize=16;strokeColor=#82b366;fillColor=#d5e8d4;" vertex="1" parent="1">
          <mxGeometry x="40" y="240" width="160" height="81.75" as="geometry" />
        </mxCell>
        <mxCell id="17-9RkpPvaxZFu77GrTP-9" style="edgeStyle=none;curved=1;rounded=0;orthogonalLoop=1;jettySize=auto;html=1;exitX=1;exitY=0.5;exitDx=0;exitDy=0;entryX=0;entryY=0.5;entryDx=0;entryDy=0;fontSize=12;startSize=8;endSize=8;" edge="1" parent="1" source="17-9RkpPvaxZFu77GrTP-3" target="17-9RkpPvaxZFu77GrTP-4">
          <mxGeometry relative="1" as="geometry" />
        </mxCell>
        <mxCell id="17-9RkpPvaxZFu77GrTP-3" value="&lt;b&gt;Filter Controller&lt;br&gt;&lt;/b&gt;" style="rounded=1;whiteSpace=wrap;html=1;fontSize=16;strokeColor=#d79b00;fillColor=#ffe6cc;" vertex="1" parent="1">
          <mxGeometry x="240" y="240" width="160" height="81.75" as="geometry" />
        </mxCell>
        <mxCell id="17-9RkpPvaxZFu77GrTP-20" style="edgeStyle=none;curved=1;rounded=0;orthogonalLoop=1;jettySize=auto;html=1;exitX=0.5;exitY=1;exitDx=0;exitDy=0;entryX=0.5;entryY=0;entryDx=0;entryDy=0;fontSize=12;startSize=8;endSize=8;" edge="1" parent="1" source="17-9RkpPvaxZFu77GrTP-4" target="17-9RkpPvaxZFu77GrTP-7">
          <mxGeometry relative="1" as="geometry" />
        </mxCell>
        <mxCell id="17-9RkpPvaxZFu77GrTP-21" style="edgeStyle=none;curved=1;rounded=0;orthogonalLoop=1;jettySize=auto;html=1;exitX=1;exitY=0.5;exitDx=0;exitDy=0;entryX=0;entryY=0.5;entryDx=0;entryDy=0;fontSize=12;startSize=8;endSize=8;" edge="1" parent="1" source="17-9RkpPvaxZFu77GrTP-4" target="17-9RkpPvaxZFu77GrTP-6">
          <mxGeometry relative="1" as="geometry" />
        </mxCell>
        <mxCell id="17-9RkpPvaxZFu77GrTP-4" value="&lt;b&gt;Result Processing&lt;br&gt;Layer&lt;br&gt;&lt;/b&gt;" style="rounded=1;whiteSpace=wrap;html=1;fontSize=16;strokeColor=#d79b00;fillColor=#ffe6cc;" vertex="1" parent="1">
          <mxGeometry x="440" y="240" width="160" height="81.75" as="geometry" />
        </mxCell>
        <mxCell id="17-9RkpPvaxZFu77GrTP-30" style="edgeStyle=none;curved=1;rounded=0;orthogonalLoop=1;jettySize=auto;html=1;exitX=0.5;exitY=1;exitDx=0;exitDy=0;entryX=0.5;entryY=0;entryDx=0;entryDy=0;fontSize=12;startSize=8;endSize=8;" edge="1" parent="1" source="17-9RkpPvaxZFu77GrTP-6" target="17-9RkpPvaxZFu77GrTP-25">
          <mxGeometry relative="1" as="geometry" />
        </mxCell>
        <mxCell id="17-9RkpPvaxZFu77GrTP-31" style="edgeStyle=none;curved=1;rounded=0;orthogonalLoop=1;jettySize=auto;html=1;exitX=0.5;exitY=1;exitDx=0;exitDy=0;entryX=0.5;entryY=0;entryDx=0;entryDy=0;fontSize=12;startSize=8;endSize=8;" edge="1" parent="1" source="17-9RkpPvaxZFu77GrTP-6" target="17-9RkpPvaxZFu77GrTP-29">
          <mxGeometry relative="1" as="geometry" />
        </mxCell>
        <mxCell id="17-9RkpPvaxZFu77GrTP-6" value="&lt;b&gt;Preference &lt;br&gt;Manager&lt;br&gt;&lt;/b&gt;" style="rounded=1;whiteSpace=wrap;html=1;fontSize=16;strokeColor=#d79b00;fillColor=#ffe6cc;" vertex="1" parent="1">
          <mxGeometry x="740" y="240" width="160" height="81.75" as="geometry" />
        </mxCell>
        <mxCell id="17-9RkpPvaxZFu77GrTP-7" value="&lt;b style=&quot;&quot;&gt;Resource Query&lt;br&gt;Service&lt;/b&gt;" style="rounded=1;whiteSpace=wrap;html=1;fontSize=16;strokeColor=#6c8ebf;fillColor=#dae8fc;" vertex="1" parent="1">
          <mxGeometry x="440" y="360" width="160" height="81.75" as="geometry" />
        </mxCell>
        <mxCell id="17-9RkpPvaxZFu77GrTP-22" style="edgeStyle=none;rounded=0;orthogonalLoop=1;jettySize=auto;html=1;exitX=1;exitY=1;exitDx=0;exitDy=0;fontSize=18;fillColor=#dae8fc;strokeColor=#6c8ebf;" edge="1" parent="1">
          <mxGeometry relative="1" as="geometry">
            <mxPoint x="825.5" y="430.57" as="sourcePoint" />
            <mxPoint x="825.5" y="430.57" as="targetPoint" />
          </mxGeometry>
        </mxCell>
        <mxCell id="17-9RkpPvaxZFu77GrTP-23" style="edgeStyle=none;rounded=0;orthogonalLoop=1;jettySize=auto;html=1;exitX=1;exitY=1;exitDx=0;exitDy=0;fontSize=18;fillColor=#dae8fc;strokeColor=#6c8ebf;" edge="1" parent="1">
          <mxGeometry relative="1" as="geometry">
            <mxPoint x="805.5" y="440.57" as="sourcePoint" />
            <mxPoint x="805.5" y="440.57" as="targetPoint" />
          </mxGeometry>
        </mxCell>
        <mxCell id="17-9RkpPvaxZFu77GrTP-24" style="edgeStyle=none;rounded=0;orthogonalLoop=1;jettySize=auto;html=1;exitX=1;exitY=1;exitDx=0;exitDy=0;fontSize=18;fillColor=#dae8fc;strokeColor=#6c8ebf;" edge="1" parent="1">
          <mxGeometry relative="1" as="geometry">
            <mxPoint x="800" y="435.57" as="sourcePoint" />
            <mxPoint x="800" y="435.57" as="targetPoint" />
          </mxGeometry>
        </mxCell>
        <mxCell id="17-9RkpPvaxZFu77GrTP-25" value="&lt;b&gt;User Service&lt;/b&gt;" style="rounded=1;whiteSpace=wrap;html=1;fontSize=16;strokeColor=#6c8ebf;fillColor=#dae8fc;" vertex="1" parent="1">
          <mxGeometry x="640" y="358.82" width="160" height="81.75" as="geometry" />
        </mxCell>
        <mxCell id="17-9RkpPvaxZFu77GrTP-26" style="edgeStyle=none;rounded=0;orthogonalLoop=1;jettySize=auto;html=1;exitX=1;exitY=1;exitDx=0;exitDy=0;fontSize=18;fillColor=#dae8fc;strokeColor=#6c8ebf;" edge="1" parent="1">
          <mxGeometry relative="1" as="geometry">
            <mxPoint x="1025" y="427.89" as="sourcePoint" />
            <mxPoint x="1025" y="427.89" as="targetPoint" />
          </mxGeometry>
        </mxCell>
        <mxCell id="17-9RkpPvaxZFu77GrTP-27" style="edgeStyle=none;rounded=0;orthogonalLoop=1;jettySize=auto;html=1;exitX=1;exitY=1;exitDx=0;exitDy=0;fontSize=18;fillColor=#dae8fc;strokeColor=#6c8ebf;" edge="1" parent="1">
          <mxGeometry relative="1" as="geometry">
            <mxPoint x="1005" y="439.39" as="sourcePoint" />
            <mxPoint x="1005" y="439.39" as="targetPoint" />
          </mxGeometry>
        </mxCell>
        <mxCell id="17-9RkpPvaxZFu77GrTP-28" style="edgeStyle=none;rounded=0;orthogonalLoop=1;jettySize=auto;html=1;exitX=1;exitY=1;exitDx=0;exitDy=0;fontSize=18;fillColor=#dae8fc;strokeColor=#6c8ebf;" edge="1" parent="1">
          <mxGeometry relative="1" as="geometry">
            <mxPoint x="1000" y="433.64" as="sourcePoint" />
            <mxPoint x="1000" y="433.64" as="targetPoint" />
          </mxGeometry>
        </mxCell>
        <mxCell id="17-9RkpPvaxZFu77GrTP-29" value="&lt;b&gt;Preference&lt;br&gt;Service&lt;/b&gt;" style="rounded=1;whiteSpace=wrap;html=1;fontSize=16;strokeColor=#6c8ebf;fillColor=#dae8fc;" vertex="1" parent="1">
          <mxGeometry x="840" y="356.89" width="160" height="81.75" as="geometry" />
        </mxCell>
      </root>
    </mxGraphModel>
  </diagram>
</mxfile>
